<svg height="512pt" viewBox="-43 0 512 512" width="512pt" xmlns="http://www.w3.org/2000/svg"><path d="m419.640625 256c0 114.324219-92.679687 207-207 207-114.324219 0-207-92.675781-207-207s92.675781-207 207-207c114.320313 0 207 92.675781 207 207zm0 0" fill="#f0c48a"/><path d="m314.1875 506.136719h-203.09375c-11.484375 0-20.792969-9.308594-20.792969-20.789063 0-11.484375 9.308594-20.792968 20.792969-20.792968h203.09375c11.480469 0 20.789062 9.308593 20.789062 20.792968 0 11.480469-9.308593 20.789063-20.789062 20.789063zm0 0" fill="#a4cff2"/><path d="m314.1875 464.554688h-38.257812v41.582031h38.257812c11.480469 0 20.789062-9.308594 20.789062-20.789063 0-11.484375-9.308593-20.792968-20.789062-20.792968zm0 0" fill="#7babf1"/><path d="m387.285156 383.652344h-349.292968c-17.746094 0-32.128907-14.386719-32.128907-32.132813v-224.894531c0-17.746094 14.386719-32.132812 32.128907-32.132812h349.289062c17.746094 0 32.132812 14.386718 32.132812 32.132812v224.894531c0 17.746094-14.386718 32.132813-32.128906 32.132813zm0 0" fill="#d3e6f8"/><path d="m387.285156 94.492188h-17.589844v289.160156h17.589844c17.746094 0 32.128906-14.386719 32.128906-32.132813v-224.894531c0-17.746094-14.386718-32.132812-32.128906-32.132812zm0 0" fill="#a4cff2"/><path d="m5.863281 325.542969v25.976562c0 17.746094 14.386719 32.132813 32.128907 32.132813h349.289062c17.746094 0 32.132812-14.386719 32.132812-32.132813v-25.976562zm0 0" fill="#a4cff2"/><path d="m369.695312 383.652344h17.585938c17.746094 0 32.132812-14.386719 32.132812-32.132813v-25.976562h-49.71875zm0 0" fill="#7babf1"/><path d="m266.398438 464.554688h-107.519532l13.308594-80.902344h80.902344zm0 0" fill="#7babf1"/><path d="m95.039062 32.386719h21.78125v62.105469h-21.78125zm0 0" fill="#fff"/><path d="m308.457031 32.386719h21.78125v62.105469h-21.78125zm0 0" fill="#fff"/><path d="m308.457031 32.386719h21.78125v33.425781h-21.78125zm0 0" fill="#d3e6f8"/><path d="m95.039062 32.386719h21.78125v33.425781h-21.78125zm0 0" fill="#d3e6f8"/><path d="m116.820312 100.355469h-21.78125c-3.238281 0-5.863281-2.625-5.863281-5.863281v-62.105469c0-3.238281 2.625-5.863281 5.863281-5.863281h21.78125c3.238282 0 5.863282 2.625 5.863282 5.863281v62.105469c0 3.238281-2.625 5.863281-5.863282 5.863281zm-15.917968-11.726563h10.054687v-50.378906h-10.054687zm0 0" fill="#4c4372"/><path d="m330.238281 100.355469h-21.78125c-3.238281 0-5.863281-2.625-5.863281-5.863281v-62.105469c0-3.238281 2.625-5.863281 5.863281-5.863281h21.78125c3.238281 0 5.863281 2.625 5.863281 5.863281v62.105469c0 3.238281-2.625 5.863281-5.863281 5.863281zm-15.917969-11.726563h10.054688v-50.378906h-10.054688zm0 0" fill="#4c4372"/><path d="m127.289062 27.222656c0 11.792969-9.5625 21.355469-21.359374 21.355469-11.796876 0-21.359376-9.5625-21.359376-21.355469 0-11.796875 9.5625-21.359375 21.359376-21.359375 11.796874 0 21.359374 9.5625 21.359374 21.359375zm0 0" fill="#fd919e"/><path d="m340.703125 27.222656c0 11.792969-9.558594 21.355469-21.355469 21.355469s-21.359375-9.5625-21.359375-21.355469c0-11.796875 9.5625-21.359375 21.359375-21.359375s21.355469 9.5625 21.355469 21.359375zm0 0" fill="#fd919e"/><g fill="#4c4372"><path d="m387.28125 389.515625h-349.289062c-20.949219 0-37.992188-17.046875-37.992188-37.996094v-224.894531c0-20.949219 17.042969-37.996094 37.992188-37.996094h349.289062c20.953125 0 37.996094 17.046875 37.996094 37.996094v224.894531c0 20.949219-17.042969 37.996094-37.996094 37.996094zm-349.289062-289.160156c-14.484376 0-26.265626 11.785156-26.265626 26.269531v224.894531c0 14.484375 11.78125 26.269531 26.265626 26.269531h349.289062c14.488281 0 26.269531-11.785156 26.269531-26.269531v-224.894531c0-14.484375-11.78125-26.269531-26.269531-26.269531zm0 0"/><path d="m266.398438 470.417969h-107.519532c-1.722656 0-3.355468-.757813-4.46875-2.070313-1.113281-1.3125-1.597656-3.046875-1.316406-4.742187l13.308594-80.90625c.464844-2.832031 2.914062-4.910157 5.785156-4.910157h80.90625c2.871094 0 5.316406 2.078126 5.785156 4.910157l13.308594 80.90625c.28125 1.695312-.203125 3.429687-1.316406 4.742187-1.117188 1.3125-2.75 2.070313-4.472656 2.070313zm-100.613282-11.726563h93.707032l-11.378907-69.175781h-70.949219zm0 0"/><path d="m314.1875 512h-203.09375c-14.699219 0-26.65625-11.957031-26.65625-26.652344 0-14.699218 11.957031-26.65625 26.65625-26.65625h203.09375c14.695312 0 26.652344 11.957032 26.652344 26.65625 0 14.695313-11.957032 26.652344-26.652344 26.652344zm-203.09375-41.582031c-8.234375 0-14.929688 6.695312-14.929688 14.929687 0 8.230469 6.695313 14.925782 14.929688 14.925782h203.09375c8.230469 0 14.925781-6.695313 14.925781-14.925782 0-8.234375-6.695312-14.929687-14.925781-14.929687zm0 0"/><path d="m419.414062 331.40625h-413.550781c-3.238281 0-5.863281-2.625-5.863281-5.863281s2.625-5.863281 5.863281-5.863281h413.550781c3.238282 0 5.863282 2.625 5.863282 5.863281s-2.625 5.863281-5.863282 5.863281zm0 0"/><path d="m105.929688 54.441406c-15.007813 0-27.21875-12.210937-27.21875-27.21875 0-15.011718 12.210937-27.222656 27.21875-27.222656 15.011718 0 27.222656 12.210938 27.222656 27.222656 0 15.007813-12.210938 27.21875-27.222656 27.21875zm0-42.714844c-8.542969 0-15.496094 6.949219-15.496094 15.496094 0 8.542969 6.953125 15.492188 15.496094 15.492188 8.542968 0 15.496093-6.949219 15.496093-15.492188 0-8.546875-6.949219-15.496094-15.496093-15.496094zm0 0"/><path d="m319.347656 54.441406c-15.011718 0-27.222656-12.210937-27.222656-27.21875 0-15.011718 12.214844-27.222656 27.222656-27.222656 15.007813 0 27.21875 12.210938 27.21875 27.222656 0 15.007813-12.210937 27.21875-27.21875 27.21875zm0-42.714844c-8.542968 0-15.496094 6.949219-15.496094 15.496094 0 8.542969 6.949219 15.492188 15.496094 15.492188 8.542969 0 15.496094-6.949219 15.496094-15.492188 0-8.546875-6.953125-15.496094-15.496094-15.496094zm0 0"/><path d="m155.199219 247.148438c3.769531 3.921874 3.769531 9.800781 0 13.570312-1.957031 1.808594-4.21875 2.710938-6.632813 2.710938-2.5625 0-4.972656-.902344-6.933594-2.710938l-42.359374-42.964844c-.453126-.152344-.601563-.453125-.753907-.90625-.152343-.148437-.453125-.300781-.453125-.300781-.300781-.449219-.300781-.753906-.449218-1.203125-.300782-.152344-.453126-.453125-.453126-.605469-.152343-.300781-.152343-.753906-.300781-.902343 0-.453126-.300781-.605469-.300781-.753907 0-.453125 0-.753906 0-1.054687 0-.300782-.152344-.453125-.152344-.90625 0-.152344.152344-.601563.152344-.753906 0-.300782 0-.753907 0-1.054688s.300781-.453125.300781-.601562c.152344-.453126.152344-.753907.300781-1.207032 0-.152344.152344-.152344.152344-.300781.300782-.453125.449219-1.054687.753906-1.359375 0 0 0-.300781.300782-.300781.152344-.300781.453125-.753907.902344-1.054688l42.363281-42.964843c3.765625-3.617188 9.949219-3.617188 13.566406 0 3.769531 3.769531 3.769531 9.800781 0 13.570312l-35.730469 36.027344zm0 0"/><path d="m193.644531 251.972656 36.933594-87.886718c1.808594-4.21875 6.632813-6.179688 11.003906-4.371094 4.070313 1.660156 6.03125 6.632812 4.222657 10.703125l-36.9375 88.039062c-1.355469 3.164063-4.519532 4.972657-7.6875 4.972657-.902344 0-2.109376-.152344-3.015626-.601563-4.371093-1.660156-6.328124-6.632813-4.519531-10.855469zm0 0"/><path d="m318.765625 216.546875s0 .152344-.148437.152344c-.304688.300781-.605469.753906-1.054688 1.054687l-42.363281 42.964844c-1.808594 1.808594-4.371094 2.710938-6.78125 2.710938-2.5625 0-4.824219-.902344-6.785157-2.710938-3.769531-3.769531-3.769531-9.648438 0-13.570312l35.726563-36.027344-35.726563-36.03125c-3.769531-3.765625-3.769531-9.796875 0-13.566406 3.617188-3.617188 9.800782-3.617188 13.566407 0l42.363281 42.964843c.449219.300781.753906.753907 1.054688 1.054688.148437 0 .148437.300781.148437.300781.304687.601562.605469.902344.753906 1.355469 0 .152343.152344.152343.152344.304687.148437.449219.148437.753906.449219 1.355469 0 .152344.152344.152344.152344.453125v1.054688c0 .148437.152343.601562.152343.753906 0 .148437-.152343.601562-.152343.753906v1.203125c0 .152344-.152344.152344-.152344.304687-.300782.601563-.300782 1.054688-.449219 1.355469 0 .152344-.152344.152344-.152344.453125-.152343.300782-.453125.753906-.753906 1.355469zm0 0"/></g></svg>